<svg xmlns="http://www.w3.org/2000/svg" width="68.119" height="68.119">
  <path fill="#fff" d="M57.12 20.099c2.183.584 4.605-3.725 5.413-6.741.808-3.018-.304-3.602-2.484-4.186-2.179-.584-4.604-.947-5.41 2.069-.811 3.019.3 8.274 2.481 8.858zM52.745 29.449c-3.125 0-5.657-.404-5.657 1.403 0 1.804 2.532 5.132 5.657 5.135 3.125 0 5.657-3.331 5.657-5.135 0-1.807-2.532-1.4-5.657-1.403zM48.37 20.099c2.183-.584 3.291-5.839 2.483-8.857-.812-3.018-3.231-2.653-5.412-2.069-2.179.584-3.292 1.168-2.482 4.186.808 3.017 3.23 7.324 5.411 6.74zM38.881 19.125c-1.733 1-2.011 3.209-.632 5.605 1.385 2.395 6.243 3.529 7.977 2.529 1.731-.999-.324-3.752-1.706-6.147-1.38-2.395-3.904-2.986-5.639-1.987zM66.611 19.125c-1.733-.999-4.256-.41-5.639 1.987-1.385 2.393-3.442 5.148-1.708 6.147 1.733 1 6.594-.134 7.977-2.529 1.38-2.396 1.105-4.601-.63-5.605zM19.748 43.457c2.182.584 4.604-3.725 5.412-6.74.809-3.018-.304-3.602-2.483-4.186-2.18-.584-4.604-.947-5.412 2.068-.808 3.019.301 8.274 2.483 8.858zM15.373 52.808c-3.125 0-5.657-.404-5.657 1.402 0 1.805 2.532 5.133 5.657 5.135 3.125 0 5.657-3.33 5.657-5.135 0-1.807-2.532-1.4-5.657-1.402zM10.998 43.457c2.182-.584 3.292-5.839 2.483-8.857-.811-3.018-3.232-2.652-5.412-2.068-2.18.584-3.292 1.167-2.483 4.186.808 3.016 3.23 7.323 5.412 6.739zM1.508 42.483c-1.734.999-2.011 3.209-.631 5.604 1.383 2.396 6.243 3.528 7.977 2.529 1.731-.999-.325-3.752-1.708-6.147-1.379-2.394-3.902-2.985-5.638-1.986zM29.239 42.483c-1.734-.999-4.257-.41-5.639 1.986-1.384 2.394-3.441 5.148-1.707 6.147 1.733.999 6.593-.134 7.977-2.529 1.38-2.395 1.102-4.6-.631-5.604z"/>
</svg>
